<?xml version="1.0" encoding="UTF-8"?>
<svg width="217px" height="217px" viewBox="0 0 217 217" version="1.1" xmlns="http://www.w3.org/2000/svg" xmlns:xlink="http://www.w3.org/1999/xlink">
    <!-- Generator: Sketch 62 (91390) - https://sketch.com -->
    <title>icon_bar loading</title>
    <desc>Created with Sketch.</desc>
    <g id="Notifications" stroke="none" stroke-width="1" fill="none" fill-rule="evenodd">
        <g id="loading" fill="#FFFFFF" fill-rule="nonzero">
            <path d="M214.691339,108.345669 C214.397041,94.3901716 211.390487,80.6252238 205.839233,67.8179559 C200.243449,55.1611842 192.237948,43.714405 182.269168,34.1159625 C172.355755,24.5819904 160.64597,17.1138304 147.820612,12.1456758 C109.008773,-3.0460147 64.8625986,6.77830118 36.1560957,36.9955633 C26.9216328,46.5725429 19.6724263,57.8813049 14.8257201,70.270949 C-5.02745438,121.101386 19.9583354,178.416118 70.7113041,198.466506 C82.605741,203.066523 95.290156,205.277235 108.039461,204.972271 C146.58189,204.088994 180.855906,180.231591 195.067393,144.394004 C197.692468,137.515994 199.517549,130.358815 200.506639,123.063629 L201.359854,123.063629 C208.72263,123.063629 214.691339,117.094919 214.691339,109.732144 C214.743905,109.378581 214.743905,109.019188 214.691339,108.665625 L214.691339,108.345669 Z M193.360963,143.754093 C178.622076,177.571225 144.920681,199.140118 108.039461,198.359854 C84.4013094,197.752661 61.9513487,187.868548 45.5414609,170.84367 C29.5522673,154.014471 20.8518732,131.554423 21.3314848,108.345669 C21.6039567,97.0191153 24.1045339,85.8571183 28.6904643,75.496891 C33.2867283,65.2531723 39.8033459,55.985094 47.8878021,48.1940104 C55.9518499,40.5446564 65.4480102,34.5642502 75.8305941,30.5964506 C86.0125028,26.6085138 96.8960625,24.7220301 107.826157,25.0505529 C118.854844,25.2328689 129.73481,27.6264616 139.821721,32.089577 C149.637833,36.5009933 158.510055,42.7658682 165.951431,50.5403518 C180.74274,66.0970328 188.759078,86.8858126 188.241673,108.345669 L188.241673,109.412188 C188.450667,116.011878 193.423412,121.481898 199.97338,122.317065 C198.729338,129.664155 196.579933,136.828838 193.574267,143.647441 L193.360963,143.754093 Z" id="形状"></path>
            <path d="M214.691339,108.345669 C214.397041,94.3901716 211.390487,80.6252238 205.839233,67.8179559 C200.243449,55.1611842 192.237948,43.714405 182.269168,34.1159625 C172.355755,24.5819904 160.64597,17.1138304 147.820612,12.1456758 C109.008773,-3.0460147 64.8625986,6.77830118 36.1560957,36.9955633 C26.9216328,46.5725429 19.6724263,57.8813049 14.8257201,70.270949 C-5.02745438,121.101386 19.9583354,178.416118 70.7113041,198.466506 C82.605741,203.066523 95.290156,205.277235 108.039461,204.972271 C146.58189,204.088994 180.855906,180.231591 195.067393,144.394004 C197.692468,137.515994 199.517549,130.358815 200.506639,123.063629 L201.359854,123.063629 C208.72263,123.063629 214.691339,117.094919 214.691339,109.732144 C214.743905,109.378581 214.743905,109.019188 214.691339,108.665625 L214.691339,108.345669 Z M193.360963,143.754093 C178.622076,177.571225 144.920681,199.140118 108.039461,198.359854 C84.4013094,197.752661 61.9513487,187.868548 45.5414609,170.84367 C29.5522673,154.014471 20.8518732,131.554423 21.3314848,108.345669 C21.6039567,97.0191153 24.1045339,85.8571183 28.6904643,75.496891 C33.2867283,65.2531723 39.8033459,55.985094 47.8878021,48.1940104 C55.9518499,40.5446564 65.4480102,34.5642502 75.8305941,30.5964506 C86.0125028,26.6085138 96.8960625,24.7220301 107.826157,25.0505529 C118.854844,25.2328689 129.73481,27.6264616 139.821721,32.089577 C149.637833,36.5009933 158.510055,42.7658682 165.951431,50.5403518 C180.74274,66.0970328 188.759078,86.8858126 188.241673,108.345669 L188.241673,109.412188 C188.450667,116.011878 193.423412,121.481898 199.97338,122.317065 C198.729338,129.664155 196.579933,136.828838 193.574267,143.647441 L193.360963,143.754093 Z" id="形状"></path>
        </g>
    </g>
</svg>