<?xml version="1.0" encoding="UTF-8"?>
<svg width="14px" height="15px" viewBox="0 0 14 15" version="1.1" xmlns="http://www.w3.org/2000/svg" xmlns:xlink="http://www.w3.org/1999/xlink">
    <!-- Generator: Sketch 62 (91390) - https://sketch.com -->
    <title>93859EE7-9393-429E-A72F-F4C0EA0C7ADB</title>
    <desc>Created with Sketch.</desc>
    <defs>
        <polygon id="path-1" points="0 0.168972554 13.980878 0.168972554 13.980878 14.1498506 0 14.1498506"></polygon>
    </defs>
    <g id="控件" stroke="none" stroke-width="1" fill="none" fill-rule="evenodd">
        <g id="nav_home">
            <g id="nav_home_pre">
                <path d="M10.1827976,4.69138313 C9.85943171,5.69820241 9.26357805,6.32702169 8.39557805,6.57834699 L8.38191951,6.62540723 C9.49543171,6.84586506 9.92789512,7.55345542 9.6779439,8.74834699 C9.09540732,10.3212386 7.90643171,11.1669735 6.09684634,11.2612627 C6.09684634,11.2612627 4.94679756,11.2572145 4.90035854,11.2572145 C4.86040732,11.2572145 4.71648049,11.2555277 4.68301707,11.2555277 C4.17867561,11.2555277 3.76977317,10.8515518 3.76977317,10.3531181 C3.76977317,10.2448289 3.82816341,10.0137446 3.83072439,9.99839518 C3.84506585,9.91743133 4.47916341,7.75384096 4.47916341,7.75384096 L6.18972439,7.68772048 C5.96265122,8.06167229 5.98143171,8.58861205 6.27696829,9.15434699 C6.66862683,9.9029253 7.39799268,10.1667325 7.90591951,9.90764819 C8.41384634,9.64772048 8.50826098,8.9635759 8.11626098,8.21482892 C7.76643171,7.54653976 7.14872439,7.1602747 6.65872439,7.26873253 L4.59201707,7.34935904 L5.56160244,4.07133494 L6.93496829,4.02933494 C6.76048049,4.31152771 6.77055366,4.69256386 6.99096829,5.12319036 C7.28309024,5.69297349 7.80126098,5.90280482 8.18796829,5.70967229 C8.57467561,5.51586506 8.68343171,4.99263614 8.39113902,4.42268434 C8.13043171,3.91396145 7.66467561,3.61726265 7.29265122,3.69637108 L5.63330976,3.74697349 L5.78304146,3.22897349 C5.89230976,2.85164819 6.13782195,2.6629012 6.51974878,2.6629012 L8.42955366,2.6629012 C9.80274878,2.75735904 10.3866512,3.43391325 10.1827976,4.69138313 M6.9904561,1.20184096 C3.71257805,1.20184096 1.04574878,3.83653976 1.04574878,7.0749253 C1.04574878,10.3133108 3.71257805,12.947841 6.9904561,12.947841 C10.2683341,12.947841 12.9351634,10.3133108 12.9351634,7.0749253 C12.9351634,3.83653976 10.2683341,1.20184096 6.9904561,1.20184096" id="Fill-1" fill-opacity="0.5" fill="#FFFFFF"></path>
                <mask id="mask-2" fill="white">
                    <use xlink:href="#path-1"></use>
                </mask>
                <g id="Clip-4"></g>
                <path d="M6.99040488,13.5376238 C3.47350244,13.5376238 0.612380488,10.6763311 0.612380488,7.15942865 C0.612380488,3.64235548 3.47350244,0.781233529 6.99040488,0.781233529 C10.507478,0.781233529 13.3686,3.64235548 13.3686,7.15942865 C13.3686,10.6763311 10.507478,13.5376238 6.99040488,13.5376238 M6.99040488,0.168818895 C3.12981951,0.168818895 -3.4146341e-05,3.29867255 -3.4146341e-05,7.15942865 C-3.4146341e-05,11.0201847 3.12981951,14.1498677 6.99040488,14.1498677 C10.851161,14.1498677 13.9810146,11.0201847 13.9810146,7.15942865 C13.9810146,3.29867255 10.851161,0.168818895 6.99040488,0.168818895" id="Fill-3" fill-opacity="0.5" fill="#FFFFFF" mask="url(#mask-2)"></path>
            </g>
        </g>
    </g>
</svg>